<svg xmlns="http://www.w3.org/2000/svg" version="1.1" xmlns:xlink="http://www.w3.org/1999/xlink" xmlns:svgjs="http://svgjs.dev/svgjs" width="1000" height="623" viewBox="0 0 1000 623"><g transform="matrix(1,0,0,1,-0.6060606060606233,0.2522267206477409)"><svg viewBox="0 0 396 247" data-background-color="#ffffff" preserveAspectRatio="xMidYMid meet" height="623" width="1000" xmlns="http://www.w3.org/2000/svg" xmlns:xlink="http://www.w3.org/1999/xlink"><g id="tight-bounds" transform="matrix(1,0,0,1,0.2400000000000091,-0.09999999999999432)"><svg viewBox="0 0 395.52 247.2" height="247.2" width="395.52"><g><svg></svg></g><g><svg viewBox="0 0 395.52 247.2" height="247.2" width="395.52"><g transform="matrix(1,0,0,1,132.02827299703264,47.215199999999996)"><svg viewBox="0 0 131.4634540059347 152.7696" height="152.7696" width="131.4634540059347"><g><svg viewBox="0 0 131.4634540059347 152.7696" height="152.7696" width="131.4634540059347"><g><svg viewBox="0 0 131.4634540059347 152.7696" height="152.7696" width="131.4634540059347"><g><svg viewBox="0 0 131.4634540059347 152.7696" height="152.7696" width="131.4634540059347"><g id="textblocktransform"><svg viewBox="0 0 131.4634540059347 152.7696" height="152.7696" width="131.4634540059347" id="textblock"><g><svg viewBox="0 0 131.4634540059347 152.7696" height="152.7696" width="131.4634540059347"><g transform="matrix(1,0,0,1,0,0)"><svg width="131.4634540059347" viewBox="3.25 -33.70000076293945 29 33.70000076293945" height="152.7696" data-palette-color="#202046"><path d="M10.95 0L3.25 0 3.25-33.7 10.95-33.7 10.95 0ZM31.35-33.7L20.3-16.85 32.25 0 22.6 0 11.3-16.75 22.2-33.7 31.35-33.7Z" opacity="1" transform="matrix(1,0,0,1,0,0)" fill="#ffffff" class="undefined-text-0" data-fill-palette-color="primary" id="text-0"></path></svg></g></svg></g></svg></g></svg></g></svg></g></svg></g></svg></g><path d="M314.33 41.215L314.33 0 67.13 0 67.13 247.2 314.33 247.2 314.33 205.985 300.553 205.985 300.553 233.423 80.907 233.423 80.907 13.777 300.553 13.777 300.553 41.215Z" fill="#ffffff" stroke="transparent" data-fill-palette-color="primary"></path></svg></g><defs></defs></svg><rect width="395.52" height="247.2" fill="none" stroke="none" visibility="hidden"></rect></g></svg></g></svg>